<svg viewBox="0 0 575 575" class="roots-wrapper">
    <g transform="rotate(0 0 0)">
        <svg viewBoxSize="575" data-root-id="5313576104960" xmlns="http://www.w3.org/2000/svg" xmlns:xlink="http://www.w3.org/1999/xlink" viewBox="0 0 483.1400146484375 553.02001953125" height="107.9952392578125" width="94.34886282805172" y="233.5023890991211" x="88.78250122070312" preserveAspectRatio="xMinYMin" zoom="1" editorType="buyer" data-layer-role="icon" style="position: absolute; height: 107.995px; width: 94.3489px; top: 233.502px; left: 88.7825px;">
            <linearGradient id="Dygrady_sans_nom_6" x1="119.39" y1="539.14" x2="316.72" y2="111.26" gradientUnits="userSpaceOnUse" name="Layer 1" zoom="1" data-layer-id="3344901704981">
                <stop offset="0" stop-color="#2f5697"></stop>
                <stop offset="0.03" stop-color="#325a96"></stop>
                <stop offset="1" stop-color="#a9f4d6"></stop>
            </linearGradient>
            <path id="Calque_1-2" dataName="Calque 1" class="cls-1" d="M483.14,324.3V304.67l-17-9.81-17,9.81v7.88l-55,4.81v-9.69l-17-9.81-17,9.81v5L281,284.42l-4.79-19.68,86.4-53.09V217l28.15,16.25L381.14,300l16.21-69,20.16-11.64,26.13,12.15-22-20.12V182.89l-6.3-3.63,33.3-20.46v6.5l10.2,5.89,6.8,123.3,6.8-123.3,10.2-5.89V145.67l-17-9.81-13.1,7.56-22.4-13.83V112.67l-17-9.81-13.6,7.85L258.17,23.48V9.88l-.1-.06V9.7L241.27,0,224.46,9.7V29.1l.11.06v.13l2.77,1.6-54.2,30.29V57.49l-17-9.81-17,9.81V77.12l2.69,1.55L28.22,142.15,17,135.68,0,145.49v19.63l10.56,6.1L16.1,286.28l-16,9.21v19.63l16,9.23-1.42,63.73L.14,396.49v19.63l17,9.82,17-9.82v-7.66l43.17-1.91L63.23,437.68,33.14,422l185,103v14.74l23,13.28.34-.2,0,0,23-13.29V528.66L446.6,423.46l11.54,6.66,17-9.82V400.67l-12.28-7.09,5.94-61ZM291.5,357.41l-44.62-19.59,1.22-36.51L271.18,288V267.85l1.12-.69ZM166.14,226.9V200.57l37.66-36.31L212,169l16.41-9.48v-5.22l19.65-1,12.37,58.12L242.14,237l18.66-23.87,8.12,38.17-1.22.63-26-15-29.5,17v1.54l-48.82-27Zm238.52-89.67-4.78,33.1-7.74-4.47-29.5,17v1.27l-44.5-25.67V145.67L315,143.84l40.48-51.78L396.14,114v18.3ZM248.25,149.71l-7.42-30.52,46.09,24.88-2.78,1.6V165.3l6.55,3.79-28.15,39.36-13.43-55.22,33.76-1.74Zm62.31-8.41-9.42-5.44L290,142.27,212.3,97.43,317.45,71.59l31,16.71ZM240.8,119.18l6.49,30.48-18.88-1v-8.12L212,131.09l-7.53,4.34L175,106.6l29.22-7.18ZM212.18,263.3v11.81L183.56,310l-19.92-8.74h0L149,236.8l9.56-5.52Zm-42.66,63.86-5.06-22.29,17.39,7.24-12.33,15.05ZM142,240.83l6.26-3.61,1.42,9.41h0l-18.32,40.49L76,262.84l44.22-34.57Zm7.7,5.91h0l7.84,51.87h0l-25-11Zm8.38,55.47h0l5,32.85h0l-36.4,44.42,36.72-42.32,7.14,47.29h0l-8.84,5.1v10.63l-76.89,1.54L131.15,291ZM185,376.09l-3.85,2.22h0l-11.1-48.84h0l14.19-16.35,50,20.83,2.18,64.75-28.1.56v-9.69Zm1-65,26.2-30.19V288l20.95,12.1,1.08,32.17Zm86.54-61.66L263,210.3l30.81-39.41,7.33,4.23,17-9.82v-4.39l44.5,24V203ZM448.64,145.67v13.08l-36.38,18.73-2.07-1.2L419,138.72l11.1-6.4,21.54,11.61ZM227.49,31l13.88,8,7.53-4.35,58.68,31.63L209.05,95.56,173.14,74.84V63.5Zm-71.35,56,12-7L201.3,97.86l-27,8-9.62-9.41,8.23,9.82L157.14,111l16.29-4,26.2,31.25-4,2.33v18.95l7.87,4.55L160,195.5l-18-10.41-1.32.76-23-83.36,17.88,86.34L117.86,199v4.35L36.64,158.49,117.86,207V226.9l2,1.16L73.24,261.61,19.5,238l3.2-66.38L34,165.12V146.76L144.85,80.42ZM29.7,292.93l-12.41-7.17,0-1.22,1.93-40.15L68.59,265Zm4.44,109.82v-6.26l-14.58-8.41-1.42-63.73,16-9.23V295.58l37.53-29.34,58.18,24.22L79.44,401.84Zm48.71,3.56,78.81-3.48v13.68l15,8.66h0l11.75,77.76L68.55,440.45ZM212.31,515.4,192,426l16.36-9.45V400.76l28.13-1.24,3.4,101.07-21.74,12.55v5.29Zm29.19-15.72-.06,0,3.38-100.56L271.14,398l-26.3.53,2-59.35,44.76,18.64,27.53,129.34-54.61,27.38V513Zm87.63-17.54L299.7,361.19l7.94,3.3-8-3.5-18.52-76.14,79,34v8.48l12.3,7.11-19.8,118.08,24-115.66.51.29L388,330.85l58.33,66.83-5.19,3V420.3l5.28,3.05Zm129-91.28-6.84,3.95-62.78-64.26,5.62-3.25v-9.82l55-.44v7.26l13.95,8.06-.85,60.87Z" name="Layer 2" zoom="1" data-layer-id="9158515104991" style="fill: rgb(255, 255, 255); fill-opacity: 1;">
            </path>
        </svg>
    </g>
    <g transform="rotate(0 0 0)">
        <svg viewBoxSize="575" data-root-id="9510776105001" xmlns="http://www.w3.org/2000/svg" y="299.0003890991211" viewBox="0 0 0 0" x="318.9075054931641" height="0" width="0" fontUrl="http://fonts.gstatic.com/s/montserrat/v18/JTURjIg1_i6t8kCHKm45_ZpC7g7J_950vCo.ttf" zoom="1" editorType="buyer" data-layer-role="slogan" style="position: absolute; top: 299px; width: 0px; height: 0px; left: 318.908px;">
            <g data-horizontal-grow="center" zoom="1" root="[object Object]" style="fill: rgb(255, 255, 255); fill-opacity: 1;">
                <path d="" transform="translate(0, 0)"></path>
            </g>
        </svg>
    </g>
    <g transform="rotate(0 0 0)">
        <svg viewBoxSize="575" data-root-id="7568507905026" xmlns="http://www.w3.org/2000/svg" y="266.0003890991211" viewBox="0.6200000047683716 0.3800000250339508 285.9200134277344 20.790000915527344" x="200.29749450683593" height="20.790000915527344" width="285.9200134277344" fontUrl="http://fonts.gstatic.com/s/josefinsans/v20/Qw3PZQNVED7rKGKxtqIqX5E-AVSJrOCfjY46_ObXXMFrLgTsQV0.ttf" zoom="1" editorType="buyer" data-layer-role="brandName" style="position: absolute; top: 266px; width: 285.92px; height: 20.79px; left: 200.297px;">
            <g data-horizontal-grow="center" zoom="1" root="[object Object]" style="fill: rgb(255, 255, 255); fill-opacity: 1;">
                <path d="M7.88 20.25L7.88 13.88L0.62 0.59L4.48 0.59L10.02 11.18L9.07 11.23L14.53 0.59L18.39 0.59L11.02 13.88L11.02 20.25L7.88 20.25ZM31.71 20.25L31.71 0.59L44.75 0.59L44.75 3.62L34.87 3.62L34.87 8.86L43.67 8.86L43.67 11.88L34.87 11.88L34.87 17.23L45.13 17.23L45.13 20.25L31.71 20.25ZM57.48 18.60L57.48 18.60Q57.48 17.93 57.99 17.44Q58.50 16.96 59.12 16.96L59.12 16.96Q59.69 16.96 60.20 17.44Q60.72 17.93 60.72 18.60L60.72 18.60Q60.72 19.36 60.20 19.80Q59.69 20.25 59.12 20.25L59.12 20.25Q58.50 20.25 57.99 19.80Q57.48 19.36 57.48 18.60L57.48 18.60ZM104.21 2.19L103.02 4.59Q101.97 4.05 100.78 3.66Q99.59 3.27 98.51 3.27L98.51 3.27Q97.05 3.27 96.20 3.91Q95.35 4.56 95.35 5.70L95.35 5.70Q95.35 6.51 95.93 7.11Q96.51 7.72 97.44 8.17Q98.37 8.61 99.40 9.02L99.40 9.02Q100.29 9.34 101.17 9.79Q102.05 10.23 102.75 10.88Q103.45 11.53 103.86 12.49Q104.26 13.45 104.26 14.85L104.26 14.85Q104.26 16.39 103.49 17.67Q102.72 18.95 101.26 19.71Q99.81 20.47 97.73 20.47L97.73 20.47Q96.48 20.47 95.31 20.20Q94.14 19.93 93.08 19.45Q92.03 18.98 91.14 18.39L91.14 18.39L92.54 15.93Q93.19 16.42 94.03 16.82Q94.86 17.23 95.76 17.47Q96.65 17.71 97.43 17.71L97.43 17.71Q98.27 17.71 99.09 17.43Q99.91 17.14 100.47 16.52Q101.02 15.90 101.02 14.88L101.02 14.88Q101.02 14.04 100.55 13.45Q100.08 12.85 99.29 12.41Q98.51 11.96 97.59 11.61L97.59 11.61Q96.67 11.26 95.73 10.83Q94.78 10.39 93.96 9.76Q93.14 9.13 92.62 8.21Q92.11 7.29 92.11 5.94L92.11 5.94Q92.11 4.32 92.87 3.13Q93.62 1.94 94.96 1.24Q96.30 0.54 98.05 0.49L98.05 0.49Q100.13 0.49 101.60 0.99Q103.07 1.48 104.21 2.19L104.21 2.19ZM117.20 10.45L117.20 10.45Q117.20 8.40 117.99 6.59Q118.77 4.78 120.15 3.38Q121.52 1.97 123.35 1.17Q125.17 0.38 127.25 0.38L127.25 0.38Q129.30 0.38 131.12 1.17Q132.94 1.97 134.33 3.38Q135.72 4.78 136.52 6.59Q137.32 8.40 137.32 10.45L137.32 10.45Q137.32 12.53 136.52 14.35Q135.72 16.17 134.33 17.55Q132.94 18.93 131.12 19.70Q129.30 20.47 127.25 20.47L127.25 20.47Q125.14 20.47 123.33 19.70Q121.52 18.93 120.15 17.56Q118.77 16.20 117.99 14.38Q117.20 12.55 117.20 10.45ZM120.44 10.45L120.44 10.45Q120.44 11.91 120.97 13.18Q121.50 14.45 122.44 15.40Q123.39 16.36 124.63 16.90Q125.87 17.44 127.33 17.44L127.33 17.44Q128.73 17.44 129.96 16.90Q131.19 16.36 132.11 15.40Q133.03 14.45 133.55 13.18Q134.08 11.91 134.08 10.45L134.08 10.45Q134.08 8.96 133.54 7.70Q133.00 6.43 132.08 5.45Q131.16 4.48 129.92 3.94Q128.68 3.40 127.25 3.40L127.25 3.40Q125.82 3.40 124.57 3.94Q123.33 4.48 122.40 5.45Q121.47 6.43 120.96 7.71Q120.44 8.99 120.44 10.45ZM154.69 0.59L154.69 8.13L154.61 9.13L155.04 8.51L162.44 0.59L166.49 0.59L158.36 9.18L166.78 20.25L162.79 20.25L156.07 11.18L154.69 12.53L154.69 20.25L151.50 20.25L151.50 0.59L154.69 0.59ZM177.95 10.45L177.95 10.45Q177.95 8.40 178.73 6.59Q179.51 4.78 180.89 3.38Q182.27 1.97 184.09 1.17Q185.91 0.38 187.99 0.38L187.99 0.38Q190.04 0.38 191.86 1.17Q193.69 1.97 195.08 3.38Q196.47 4.78 197.26 6.59Q198.06 8.40 198.06 10.45L198.06 10.45Q198.06 12.53 197.26 14.35Q196.47 16.17 195.08 17.55Q193.69 18.93 191.86 19.70Q190.04 20.47 187.99 20.47L187.99 20.47Q185.88 20.47 184.08 19.70Q182.27 18.93 180.89 17.56Q179.51 16.20 178.73 14.38Q177.95 12.55 177.95 10.45ZM181.19 10.45L181.19 10.45Q181.19 11.91 181.71 13.18Q182.24 14.45 183.18 15.40Q184.13 16.36 185.37 16.90Q186.61 17.44 188.07 17.44L188.07 17.44Q189.48 17.44 190.70 16.90Q191.93 16.36 192.85 15.40Q193.77 14.45 194.29 13.18Q194.82 11.91 194.82 10.45L194.82 10.45Q194.82 8.96 194.28 7.70Q193.74 6.43 192.82 5.45Q191.91 4.48 190.66 3.94Q189.42 3.40 187.99 3.40L187.99 3.40Q186.56 3.40 185.32 3.94Q184.08 4.48 183.14 5.45Q182.21 6.43 181.70 7.71Q181.19 8.99 181.19 10.45ZM212.25 20.25L212.25 0.59L215.41 0.59L215.41 17.23L225.07 17.23L225.07 20.25L212.25 20.25ZM237.61 10.45L237.61 10.45Q237.61 8.40 238.39 6.59Q239.18 4.78 240.55 3.38Q241.93 1.97 243.75 1.17Q245.57 0.38 247.65 0.38L247.65 0.38Q249.71 0.38 251.53 1.17Q253.35 1.97 254.74 3.38Q256.13 4.78 256.93 6.59Q257.72 8.40 257.72 10.45L257.72 10.45Q257.72 12.53 256.93 14.35Q256.13 16.17 254.74 17.55Q253.35 18.93 251.53 19.70Q249.71 20.47 247.65 20.47L247.65 20.47Q245.55 20.47 243.74 19.70Q241.93 18.93 240.55 17.56Q239.18 16.20 238.39 14.38Q237.61 12.55 237.61 10.45ZM240.85 10.45L240.85 10.45Q240.85 11.91 241.38 13.18Q241.90 14.45 242.85 15.40Q243.79 16.36 245.03 16.90Q246.28 17.44 247.73 17.44L247.73 17.44Q249.14 17.44 250.37 16.90Q251.60 16.36 252.51 15.40Q253.43 14.45 253.96 13.18Q254.48 11.91 254.48 10.45L254.48 10.45Q254.48 8.96 253.94 7.70Q253.40 6.43 252.49 5.45Q251.57 4.48 250.33 3.94Q249.08 3.40 247.65 3.40L247.65 3.40Q246.22 3.40 244.98 3.94Q243.74 4.48 242.81 5.45Q241.88 6.43 241.36 7.71Q240.85 8.99 240.85 10.45ZM268.94 0.59L272.69 0.59L278.88 15.98L277.07 15.63L282.84 0.59L286.54 0.59L277.74 21.17L268.94 0.59Z" transform="translate(0, 0)"></path>
            </g>
        </svg>
    </g>
</svg>